<?xml version="1.0" encoding="UTF-8" standalone="no"?>
<!-- Created with Inkscape (http://www.inkscape.org/) -->

<svg
   width="720"
   height="1440"
   viewBox="0 0 190.50001 381.00001"
   version="1.1"
   id="svg5"
   sodipodi:docname="boot.svg"
   inkscape:version="1.1.2 (0a00cf5339, 2022-02-04)"
   inkscape:export-filename="/home/james/Code/LiveG/OS-Bootstrap/host/pinephone/p-boot/files/boot.png"
   inkscape:export-xdpi="96"
   inkscape:export-ydpi="96"
   xmlns:inkscape="http://www.inkscape.org/namespaces/inkscape"
   xmlns:sodipodi="http://sodipodi.sourceforge.net/DTD/sodipodi-0.dtd"
   xmlns="http://www.w3.org/2000/svg"
   xmlns:svg="http://www.w3.org/2000/svg">
  <sodipodi:namedview
     id="namedview7"
     pagecolor="#505050"
     bordercolor="#ffffff"
     borderopacity="1"
     inkscape:pageshadow="0"
     inkscape:pageopacity="0"
     inkscape:pagecheckerboard="1"
     inkscape:document-units="px"
     showgrid="false"
     width="720px"
     units="px"
     inkscape:snap-bbox="true"
     inkscape:bbox-paths="false"
     inkscape:snap-page="true"
     inkscape:zoom="0.34520553"
     inkscape:cx="-243.3333"
     inkscape:cy="735.79355"
     inkscape:window-width="1920"
     inkscape:window-height="1026"
     inkscape:window-x="0"
     inkscape:window-y="32"
     inkscape:window-maximized="1"
     inkscape:current-layer="layer1" />
  <defs
     id="defs2" />
  <g
     inkscape:label="Layer 1"
     inkscape:groupmode="layer"
     id="layer1">
    <rect
       style="fill:#000000;stroke-width:1.23478;stop-color:#000000;fill-opacity:1"
       id="rect846"
       width="190.5"
       height="381"
       x="0"
       y="0" />
    <g
       inkscape:label="Layer 1"
       id="layer1-6"
       transform="matrix(0.50000001,0,0,0.50000001,61.383336,156.63334)">
      <path
         id="rect835"
         style="fill:#ffff00;fill-opacity:1;stroke:none;stroke-width:0.830125;stop-color:#000000"
         d="M 67.733332,0 V 67.733332 H 135.46667 A 67.733334,67.73333 0 0 0 67.733332,0 Z" />
      <path
         id="path833-6"
         style="fill:#00b0f0;fill-opacity:1;stroke:none;stroke-width:5.24772;stop-color:#000000"
         d="M 256,0 A 255.99999,255.99999 0 0 0 0,256 255.99999,255.99999 0 0 0 256,512 255.99999,255.99999 0 0 0 512,256 H 256 Z M 512,256 A 255.99999,255.99999 0 0 0 511.996,254.6543 256.00001,255.99999 0 0 1 512,256 Z M 263.91016,0.12304688 a 256.00001,255.99999 0 0 1 1.15234,0.0390625 255.99999,255.99999 0 0 0 -1.15234,-0.0390625 z M 276,0.78320312 a 256.00001,255.99999 0 0 1 0.91797,0.0742188 A 255.99999,255.99999 0 0 0 276,0.78320312 Z m 6.69922,0.61328128 a 256.00001,255.99999 0 0 1 1.14844,0.1230468 255.99999,255.99999 0 0 0 -1.14844,-0.1230468 z m 2.67383,0.2949218 a 256.00001,255.99999 0 0 1 2.67187,0.3222657 255.99999,255.99999 0 0 0 -2.67187,-0.3222657 z m 6.67187,0.859375 a 256.00001,255.99999 0 0 1 1.33203,0.1933594 255.99999,255.99999 0 0 0 -1.33203,-0.1933594 z m 2.66211,0.3925782 a 256.00001,255.99999 0 0 1 1.03711,0.1621094 255.99999,255.99999 0 0 0 -1.03711,-0.1621094 z m 3.98633,0.6425781 A 256.00001,255.99999 0 0 1 300.01758,3.8125 255.99999,255.99999 0 0 0 298.69336,3.5859375 Z m 11.88672,2.3007813 a 256.00001,255.99999 0 0 1 1.19922,0.2636718 255.99999,255.99999 0 0 0 -1.19922,-0.2636718 z m 22.09961,5.8671872 a 256.00001,255.99999 0 0 1 1.28125,0.40625 255.99999,255.99999 0 0 0 -1.28125,-0.40625 z m 13.98242,4.837891 a 256.00001,255.99999 0 0 1 1.25781,0.480469 255.99999,255.99999 0 0 0 -1.25781,-0.480469 z m 1.25781,0.480469 a 256.00001,255.99999 0 0 1 1.23438,0.478515 255.99999,255.99999 0 0 0 -1.23438,-0.478515 z m 24.56055,10.96289 a 256.00001,255.99999 0 0 1 0.95508,0.490235 255.99999,255.99999 0 0 0 -0.95508,-0.490235 z m 5.94922,3.138672 a 256.00001,255.99999 0 0 1 1.17969,0.646484 255.99999,255.99999 0 0 0 -1.17969,-0.646484 z m 3.52929,1.958984 a 256.00001,255.99999 0 0 1 1.15625,0.65625 255.99999,255.99999 0 0 0 -1.15625,-0.65625 z m 2.33594,1.335938 a 256.00001,255.99999 0 0 1 1.88672,1.103516 255.99999,255.99999 0 0 0 -1.88672,-1.103516 z m 22.53516,14.683594 a 256.00001,255.99999 0 0 1 0.78515,0.574218 255.99999,255.99999 0 0 0 -0.78515,-0.574218 z m 8.56054,6.521484 a 256.00001,255.99999 0 0 1 0.68165,0.544922 255.99999,255.99999 0 0 0 -0.68165,-0.544922 z m 13.30469,11.34961 a 256.00001,255.99999 0 0 1 0.99024,0.910156 255.99999,255.99999 0 0 0 -0.99024,-0.910156 z m 11.56641,11.259765 a 256.00001,255.99999 0 0 1 0.76562,0.796875 255.99999,255.99999 0 0 0 -0.76562,-0.796875 z m 5.51172,5.898438 a 256.00001,255.99999 0 0 1 0.5664,0.628906 255.99999,255.99999 0 0 0 -0.5664,-0.628906 z m 4.44922,5.044921 a 256.00001,255.99999 0 0 1 0.57226,0.669922 255.99999,255.99999 0 0 0 -0.57226,-0.669922 z m 8.49218,10.433594 a 256.00001,255.99999 0 0 1 0.5625,0.730464 255.99999,255.99999 0 0 0 -0.5625,-0.730464 z m 6.39258,8.658204 a 256.00001,255.99999 0 0 1 0.77344,1.10156 255.99999,255.99999 0 0 0 -0.77344,-1.10156 z m 1.54102,2.20703 a 256.00001,255.99999 0 0 1 0.76172,1.10742 255.99999,255.99999 0 0 0 -0.76172,-1.10742 z m 9.43945,14.71875 a 256.00001,255.99999 0 0 1 0.33984,0.57422 255.99999,255.99999 0 0 0 -0.33984,-0.57422 z m 10.78906,20.16016 a 256.00001,255.99999 0 0 1 1.15039,2.43359 255.99999,255.99999 0 0 0 -1.15039,-2.43359 z m 1.15039,2.43359 a 256.00001,255.99999 0 0 1 0.56446,1.2207 255.99999,255.99999 0 0 0 -0.56446,-1.2207 z m 9.17969,22.40039 a 256.00001,255.99999 0 0 1 0.32813,0.92969 255.99999,255.99999 0 0 0 -0.32813,-0.92969 z m 2.16992,6.36719 a 256.00001,255.99999 0 0 1 0.28516,0.88281 255.99999,255.99999 0 0 0 -0.28516,-0.88281 z m 2.00196,6.42187 a 256.00001,255.99999 0 0 1 0.31054,1.05078 255.99999,255.99999 0 0 0 -0.31054,-1.05078 z m 3.49414,12.99024 a 256.00001,255.99999 0 0 1 0.24218,1.01758 255.99999,255.99999 0 0 0 -0.24218,-1.01758 z m 1.49023,6.56054 a 256.00001,255.99999 0 0 1 0.27734,1.31641 255.99999,255.99999 0 0 0 -0.27734,-1.31641 z m 2.2461,11.89844 a 256.00001,255.99999 0 0 1 0.21484,1.32813 255.99999,255.99999 0 0 0 -0.21484,-1.32813 z m 2.36914,18.68164 a 256.00001,255.99999 0 0 1 0.11132,1.26953 255.99999,255.99999 0 0 0 -0.11132,-1.26953 z m 0.42382,5.36524 a 256.00001,255.99999 0 0 1 0.16993,2.68554 255.99999,255.99999 0 0 0 -0.16993,-2.68554 z m 0.3711,6.71679 a 256.00001,255.99999 0 0 1 0.0469,1.21094 255.99999,255.99999 0 0 0 -0.0469,-1.21094 z"
         transform="scale(0.26458333)" />
    </g>
  </g>
</svg>
